<svg fill="none" height="60" viewBox="0 0 110 60" width="110" xmlns="http://www.w3.org/2000/svg">
<path clip-rule="evenodd" d="M38.6917 18.9269H46.6032C46.1829 22.1874 45.4831 23.6348 34.3497 23.6348C21.8167 23.6348 19.5082 22.6191 20.4875 16.6094C21.4691 10.5246 21.819 9.58398 34.4906 9.58398C45.624 9.58398 47.1645 10.3088 46.7441 14.2918H38.8326C38.694 12.9172 37.7124 12.2651 34.0021 12.2651C28.7512 12.2651 28.4717 13.4239 27.981 16.6094C27.4902 19.7222 28.7512 20.9537 33.8612 20.9537C37.5716 20.9537 38.5509 20.3038 38.6917 18.9269ZM64.6301 21.8875L55.2099 21.5399L57.064 10.0293H49.4569L47.1053 24.3596L16.2 26.2227V28.7175L32.8114 29.331L29.5418 49.6323H42.961L47.1053 24.3596L64.6301 23.303V21.8875ZM93.6229 33.9366L93.6224 33.9411L93.6247 33.9366H93.6229ZM93.6543 33.6578L93.6436 33.7523L93.6229 33.9366H79.9579C80.4669 31.1259 78.5515 30.3602 71.7828 30.3602C64.3098 30.3602 62.6057 31.594 61.6242 35.9247C64.0099 35.6156 67.2568 35.343 70.5059 35.343C90.0484 35.343 92.3455 38.2808 91.4526 42.8796C90.5596 46.9672 87.3673 50.4162 67.4408 50.4162C47.5143 50.4162 45.3445 46.7127 47.8983 35.4725L47.9007 35.4618C49.4304 28.5736 50.0821 25.6388 72.5485 25.6388C94.5631 25.6388 94.1605 29.1912 93.6543 33.6578ZM68.3338 45.6925C75.2319 45.6925 77.2745 44.9245 77.7858 42.2434H77.7835C78.4242 39.56 76.6361 38.7943 69.7379 38.7943C68.3088 38.7943 64.1235 38.9829 61.0403 39.1829C60.1769 45.1086 61.4356 45.6925 68.3338 45.6925Z" fill="#000016" fill-rule="evenodd"></path>
</svg>